<svg xmlns="http://www.w3.org/2000/svg" xmlns:xlink="http://www.w3.org/1999/xlink" width="0" height="0" style="display:none;"><symbol viewBox="0 0 24 24" id="home-7-line"><path d="M19 21H5C4.44772 21 4 20.5523 4 20V11L1 11L11.3273 1.6115C11.7087 1.26475 12.2913 1.26475 12.6727 1.6115L23 11L20 11V20C20 20.5523 19.5523 21 19 21ZM6 19H18V9.15745L12 3.7029L6 9.15745V19ZM12 15C10.6193 15 9.5 13.8807 9.5 12.5C9.5 11.1193 10.6193 9.99998 12 9.99998C13.3807 9.99998 14.5 11.1193 14.5 12.5C14.5 13.8807 13.3807 15 12 15Z"></path></symbol><symbol viewBox="0 0 24 24" id="book-open-line"><path d="M13 21V23H11V21H3C2.44772 21 2 20.5523 2 20V4C2 3.44772 2.44772 3 3 3H9C10.1947 3 11.2671 3.52375 12 4.35418C12.7329 3.52375 13.8053 3 15 3H21C21.5523 3 22 3.44772 22 4V20C22 20.5523 21.5523 21 21 21H13ZM20 19V5H15C13.8954 5 13 5.89543 13 7V19H20ZM11 19V7C11 5.89543 10.1046 5 9 5H4V19H11Z"></path></symbol><symbol viewBox="0 0 24 24" id="contacts-line"><path d="M19 7H24V9H19V7ZM17 12H24V14H17V12ZM20 17H24V19H20V17ZM2 22C2 17.5817 5.58172 14 10 14C14.4183 14 18 17.5817 18 22H16C16 18.6863 13.3137 16 10 16C6.68629 16 4 18.6863 4 22H2ZM10 13C6.685 13 4 10.315 4 7C4 3.685 6.685 1 10 1C13.315 1 16 3.685 16 7C16 10.315 13.315 13 10 13ZM10 11C12.21 11 14 9.21 14 7C14 4.79 12.21 3 10 3C7.79 3 6 4.79 6 7C6 9.21 7.79 11 10 11Z"></path></symbol><symbol viewBox="0 0 24 24" id="building-2-line"><path d="M3 19V5.70046C3 5.27995 3.26307 4.90437 3.65826 4.76067L13.3291 1.24398C13.5886 1.14961 13.8755 1.28349 13.9699 1.54301C13.9898 1.59778 14 1.65561 14 1.71388V6.6667L20.3162 8.77211C20.7246 8.90822 21 9.29036 21 9.72079V19H23V21H1V19H3ZM5 19H12V3.85543L5 6.40089V19ZM19 19V10.4416L14 8.77488V19H19Z"></path></symbol></svg>