<svg width="20" height="20" viewBox="0 0 20 20" fill="none" xmlns="http://www.w3.org/2000/svg">
<path d="M15.1818 5.64286H19.5V7.35714H15.1818V5.64286ZM13.4545 9.92857H19.5V11.6429H13.4545V9.92857ZM16.0455 14.2143H19.5V15.9286H16.0455V14.2143ZM0.5 18.5C0.5 14.7129 3.5933 11.6429 7.40909 11.6429C11.2249 11.6429 14.3182 14.7129 14.3182 18.5H12.5909C12.5909 15.6597 10.2709 13.3571 7.40909 13.3571C4.54725 13.3571 2.22727 15.6597 2.22727 18.5H0.5ZM7.40909 10.7857C4.54614 10.7857 2.22727 8.48429 2.22727 5.64286C2.22727 2.80143 4.54614 0.5 7.40909 0.5C10.272 0.5 12.5909 2.80143 12.5909 5.64286C12.5909 8.48429 10.272 10.7857 7.40909 10.7857ZM7.40909 9.07143C9.31773 9.07143 10.8636 7.53714 10.8636 5.64286C10.8636 3.74857 9.31773 2.21429 7.40909 2.21429C5.50045 2.21429 3.95455 3.74857 3.95455 5.64286C3.95455 7.53714 5.50045 9.07143 7.40909 9.07143Z" fill="#333333"/>
</svg>
