<svg width="24" height="22" viewBox="0 0 24 22" fill="none" xmlns="http://www.w3.org/2000/svg">
<path d="M19.6364 21H4.36364C3.76115 21 3.27273 20.5215 3.27273 19.9312V10.3122H0L11.2661 0.27795C11.6822 -0.0926499 12.3178 -0.0926499 12.7339 0.27795L24 10.3122H20.7273V19.9312C20.7273 20.5215 20.2389 21 19.6364 21ZM5.45455 18.8624H18.5455V8.34291L12 2.5132L5.45455 8.34291V18.8624ZM12 14.5873C10.4938 14.5873 9.27273 13.391 9.27273 11.9154C9.27273 10.4397 10.4938 9.24339 12 9.24339C13.5062 9.24339 14.7273 10.4397 14.7273 11.9154C14.7273 13.391 13.5062 14.5873 12 14.5873Z" fill="#333333"/>
</svg>
