<svg width="20" height="20" viewBox="0 0 20 20" fill="none" xmlns="http://www.w3.org/2000/svg">
<path d="M10.6166 17.1V19H8.71663V17.1H1.11663C0.59196 17.1 0.166626 16.6747 0.166626 16.15V0.95C0.166626 0.425334 0.59196 0 1.11663 0H6.81663C7.95159 0 8.97037 0.497562 9.66663 1.28647C10.3629 0.497562 11.3817 0 12.5166 0H18.2166C18.7413 0 19.1666 0.425334 19.1666 0.95V16.15C19.1666 16.6747 18.7413 17.1 18.2166 17.1H10.6166ZM17.2666 15.2V1.9H12.5166C11.4673 1.9 10.6166 2.75066 10.6166 3.8V15.2H17.2666ZM8.71663 15.2V3.8C8.71663 2.75066 7.866 1.9 6.81663 1.9H2.06663V15.2H8.71663Z" fill="#333333"/>
</svg>
